<?xml version="1.0" encoding="UTF-8"?>
<svg xmlns="http://www.w3.org/2000/svg" version="1.1" viewBox="0 0 1000 1000">
  <defs>
    <style>
      .cls-1 {
        fill: #84b02c;
      }

      .cls-1, .cls-2, .cls-3, .cls-4 {
        fill-rule: evenodd;
      }

      .cls-5, .cls-4 {
        fill: #018ede;
      }

      .cls-2, .cls-6 {
        fill: #9c3;
      }

      .cls-3 {
        fill: #6f9426;
      }
    </style>
  </defs>
  <!-- Generator: Adobe Illustrator 28.7.1, SVG Export Plug-In . SVG Version: 1.2.0 Build 142)  -->
  <g>
    <g id="Layer_1">
      <g>
        <path class="cls-5" d="M191.796,717.811l-14.386-18.897v18.897h-10.424v-42.793h10.424v18.775l14.264-18.775h12.253l-16.581,20.97,17.19,21.823h-12.74Z"/>
        <path class="cls-5" d="M232.089,683.369v8.656h13.959v8.046h-13.959v9.388h15.788v8.352h-26.212v-42.793h26.212v8.352h-15.788Z"/>
        <path class="cls-5" d="M267.81,685.045c1.829-3.312,4.378-5.892,7.65-7.741,3.271-1.849,6.979-2.773,11.125-2.773,5.08,0,9.427,1.341,13.045,4.022,3.617,2.683,6.035,6.34,7.254,10.973h-11.46c-.854-1.787-2.063-3.148-3.627-4.084-1.565-.935-3.343-1.402-5.334-1.402-3.211,0-5.812,1.118-7.803,3.354-1.992,2.235-2.987,5.222-2.987,8.961s.995,6.726,2.987,8.961c1.991,2.235,4.592,3.353,7.803,3.353,1.991,0,3.769-.467,5.334-1.402,1.564-.935,2.773-2.296,3.627-4.084h11.46c-1.219,4.633-3.638,8.28-7.254,10.941-3.618,2.663-7.965,3.993-13.045,3.993-4.146,0-7.854-.924-11.125-2.773-3.272-1.849-5.822-4.42-7.65-7.711-1.829-3.292-2.743-7.051-2.743-11.277s.914-7.995,2.743-11.309Z"/>
        <path class="cls-5" d="M362.54,675.018v42.793h-10.424v-17.617h-16.215v17.617h-10.424v-42.793h10.424v16.764h16.215v-16.764h10.424Z"/>
        <path class="cls-5" d="M392.653,675.018v42.793h-10.424v-42.793h10.424Z"/>
        <path class="cls-5" d="M443.188,675.018v8.352h-11.338v34.441h-10.424v-34.441h-11.338v-8.352h33.101Z"/>
        <path class="cls-5" d="M487.26,710.252h-15.971l-2.56,7.559h-10.912l15.484-42.793h12.07l15.483,42.793h-11.034l-2.56-7.559ZM484.578,702.205l-5.304-15.666-5.242,15.666h10.546Z"/>
        <path class="cls-5" d="M543.829,685.045c1.829-3.312,4.379-5.892,7.65-7.741,3.271-1.849,6.979-2.773,11.125-2.773,5.079,0,9.428,1.341,13.045,4.022,3.616,2.683,6.035,6.34,7.254,10.973h-11.46c-.854-1.787-2.063-3.148-3.627-4.084-1.565-.935-3.344-1.402-5.334-1.402-3.211,0-5.812,1.118-7.803,3.354-1.991,2.235-2.987,5.222-2.987,8.961s.996,6.726,2.987,8.961c1.99,2.235,4.592,3.353,7.803,3.353,1.99,0,3.769-.467,5.334-1.402,1.563-.935,2.773-2.296,3.627-4.084h11.46c-1.219,4.633-3.638,8.28-7.254,10.941-3.617,2.663-7.966,3.993-13.045,3.993-4.146,0-7.854-.924-11.125-2.773-3.271-1.849-5.821-4.42-7.65-7.711-1.829-3.292-2.743-7.051-2.743-11.277s.914-7.995,2.743-11.309Z"/>
        <path class="cls-5" d="M628.135,710.252h-15.971l-2.561,7.559h-10.911l15.483-42.793h12.069l15.484,42.793h-11.034l-2.561-7.559ZM625.453,702.205l-5.304-15.666-5.242,15.666h10.546Z"/>
        <path class="cls-5" d="M689.521,695.591c-1.139,2.053-2.886,3.709-5.242,4.969-2.357,1.26-5.283,1.89-8.778,1.89h-6.462v15.361h-10.424v-42.793h16.886c3.414,0,6.299.59,8.656,1.768,2.356,1.18,4.124,2.805,5.304,4.877,1.178,2.072,1.768,4.45,1.768,7.132,0,2.479-.569,4.745-1.707,6.797ZM679.157,692.757c.976-.935,1.463-2.256,1.463-3.963s-.487-3.026-1.463-3.962c-.975-.935-2.459-1.402-4.449-1.402h-5.67v10.729h5.67c1.99,0,3.475-.467,4.449-1.401Z"/>
        <path class="cls-5" d="M719.268,675.018v42.793h-10.424v-42.793h10.424Z"/>
        <path class="cls-5" d="M769.802,675.018v8.352h-11.338v34.441h-10.424v-34.441h-11.339v-8.352h33.101Z"/>
        <path class="cls-5" d="M813.875,710.252h-15.971l-2.561,7.559h-10.911l15.483-42.793h12.069l15.484,42.793h-11.034l-2.561-7.559ZM811.193,702.205l-5.304-15.666-5.242,15.666h10.546Z"/>
        <path class="cls-5" d="M854.778,709.764h13.655v8.047h-24.079v-42.793h10.424v34.746Z"/>
      </g>
      <g>
        <path class="cls-5" d="M268.491,759.263v-29.688h4.273v29.688h-4.273ZM268.491,729.574v29.688h4.273v-29.688h-4.273ZM272.622,729.717h-3.989v29.403h3.989v-29.403Z"/>
        <path class="cls-5" d="M300.527,729.624v29.503l-4.273-4.273-14.972-14.974v.002l-4.273-4.273v-6.044l19.246,19.245v-19.186h4.273ZM277.008,738.631l4.273,4.273v16.358h-4.273v-20.632Z"/>
        <path class="cls-5" d="M318.851,746.51l-2.808,5.122-12.234-22.104h5.645l9.397,16.981ZM336.724,729.528l-13.635,24.635-2.823,5.1v-.003s-2.822-5.097-2.822-5.097l2.822-5.099,10.812-19.536h5.646Z"/>
        <path class="cls-5" d="M366.671,729.636v4.272h-26.2v-4.272h26.2ZM344.744,754.989h21.927v4.273h-26.2v-23.218h4.273v5.194h19.057v4.273h-19.057v9.477Z"/>
        <path class="cls-5" d="M394.583,746.579c.709,1.239,1.114,2.675,1.114,4.205s-.405,2.966-1.114,4.205c-1.461,2.553-4.212,4.273-7.364,4.273h-9.23c-3.155,0-5.907-1.721-7.373-4.273-.675-1.18-1.079-2.537-1.118-3.985h4.277c.123,2.219,1.964,3.985,4.214,3.985h9.23c2.319,0,4.205-1.886,4.205-4.205s-1.886-4.205-4.205-4.205h-9.243c-2.386,0-4.542-.985-6.081-2.571-.496-.51-.928-1.081-1.284-1.702-.709-1.239-1.114-2.675-1.114-4.205s.404-2.966,1.114-4.205c1.461-2.553,4.212-4.273,7.365-4.273h9.01c.074-.003.146-.004.221-.004.074,0,.146,0,.221.004,3.062.077,5.721,1.776,7.152,4.27.001,0,.001.003.003.004.673,1.179,1.075,2.534,1.115,3.981h-4.278c-.12-2.168-1.879-3.902-4.057-3.981h-9.387c-2.319,0-4.205,1.887-4.205,4.205,0,2.179,1.664,3.974,3.787,4.185.143-.008.286-.012.431-.012.249,0,.494.012.737.032h8.494c3.152,0,5.903,1.721,7.364,4.273Z"/>
        <path class="cls-5" d="M399.954,733.913v-4.273h26.431v4.273h-26.431ZM410.804,759.263v-23.213h4.273v23.213h-4.273Z"/>
        <path class="cls-5" d="M457.061,729.724v29.539h-4.273v-19.222l-5.815,5.816-1.397,1.396-1.626,1.624-9.041-9.041h0s-4.273-4.272-4.273-4.272v-6.045l13.316,13.315,13.111-13.11ZM430.634,738.584l4.273,4.273v16.405h-4.273v-20.679Z"/>
        <path class="cls-5" d="M488.01,729.636v4.272h-26.2v-4.272h26.2ZM466.083,754.989h21.927v4.273h-26.2v-23.218h4.273v5.194h19.057v4.273h-19.057v9.477Z"/>
        <path class="cls-5" d="M515.826,729.624v29.503l-4.273-4.273-14.973-14.974v.002l-4.273-4.273v-6.044l19.246,19.245v-19.186h4.273ZM492.307,738.631l4.273,4.273v16.358h-4.273v-20.632Z"/>
        <path class="cls-5" d="M520.088,733.913v-4.273h26.431v4.273h-26.431ZM530.938,759.263v-23.213h4.273v23.213h-4.273Z"/>
        <path class="cls-5" d="M593.31,754.989v4.273h-23.055v-29.858h4.273v25.585h18.781Z"/>
        <path class="cls-5" d="M597.546,759.263v-29.688h4.273v29.688h-4.273ZM597.546,729.574v29.688h4.273v-29.688h-4.273ZM601.677,729.717h-3.988v29.403h3.988v-29.403Z"/>
        <path class="cls-5" d="M632.49,729.724v29.539h-4.273v-19.222l-5.814,5.816-1.397,1.396-1.627,1.624-9.041-9.041h0s-4.273-4.272-4.273-4.272v-6.045l13.315,13.315,13.111-13.11ZM606.063,738.584l4.273,4.273v16.405h-4.273v-20.679Z"/>
        <path class="cls-5" d="M636.743,759.263v-29.688h4.273v29.688h-4.273ZM636.743,729.574v29.688h4.273v-29.688h-4.273ZM640.874,729.717h-3.988v29.403h3.988v-29.403Z"/>
        <path class="cls-5" d="M645.261,733.913v-4.273h26.431v4.273h-26.431ZM656.11,759.263v-23.213h4.273v23.213h-4.273Z"/>
        <path class="cls-5" d="M702.636,729.636v4.272h-26.2v-4.272h26.2ZM680.709,754.989h21.927v4.273h-26.2v-23.218h4.273v5.194h19.057v4.273h-19.057v9.477Z"/>
        <path class="cls-5" d="M733.614,744.507c0,.74-.055,1.469-.159,2.18-.968,6.586-6.255,11.77-12.894,12.576h-13.629v-23.203h4.273v18.93h9.069c4.401-.637,7.935-3.991,8.84-8.303.147-.704.226-1.434.226-2.18,0-.717-.071-1.418-.208-2.094-.519-2.579-1.978-4.82-4-6.354-1.661-1.259-3.703-2.04-5.922-2.137h-12.278v-4.289h11.984v.007c7.425.083,13.54,5.607,14.549,12.772.099.684.148,1.383.148,2.094Z"/>
      </g>
      <g>
        <path class="cls-6" d="M575.93,768.405l-6.471,12.464v7.09h-3.208v-7.09l-6.499-12.464h3.573l4.529,9.594,4.53-9.594h3.545Z"/>
        <path class="cls-6" d="M581.219,787.214c-1.182-.666-2.11-1.604-2.785-2.813-.675-1.21-1.013-2.612-1.013-4.207,0-1.575.347-2.973,1.041-4.191.693-1.22,1.641-2.157,2.842-2.813,1.199-.656,2.541-.985,4.022-.985s2.823.329,4.023.985,2.147,1.594,2.842,2.813c.693,1.219,1.041,2.616,1.041,4.191s-.356,2.974-1.069,4.192c-.713,1.22-1.684,2.162-2.912,2.828s-2.584.998-4.065.998c-1.463,0-2.785-.332-3.967-.998ZM587.507,784.836c.722-.394,1.309-.984,1.759-1.772s.675-1.744.675-2.87-.216-2.077-.646-2.855c-.432-.778-1.004-1.364-1.717-1.758-.713-.395-1.481-.591-2.307-.591s-1.59.196-2.293.591c-.703.394-1.262.979-1.674,1.758-.413.778-.619,1.73-.619,2.855,0,1.67.426,2.959,1.28,3.869.853.91,1.927,1.364,3.221,1.364.825,0,1.6-.197,2.321-.591Z"/>
        <path class="cls-6" d="M610.45,772.457v15.502h-3.207v-1.829c-.507.639-1.168,1.14-1.983,1.506-.816.365-1.685.548-2.603.548-1.22,0-2.312-.253-3.278-.759-.966-.507-1.726-1.257-2.278-2.251-.554-.994-.83-2.194-.83-3.602v-9.115h3.179v8.637c0,1.389.347,2.453,1.041,3.193.694.741,1.642,1.111,2.842,1.111s2.152-.37,2.855-1.111c.703-.74,1.056-1.805,1.056-3.193v-8.637h3.207Z"/>
        <path class="cls-6" d="M619.748,772.864c.778-.44,1.702-.661,2.771-.661v3.32h-.816c-1.257,0-2.208.319-2.855.956-.647.639-.971,1.745-.971,3.32v8.159h-3.207v-15.502h3.207v2.25c.469-.787,1.093-1.401,1.871-1.843Z"/>
        <path class="cls-6" d="M646.939,774.032c-.506-.975-1.21-1.711-2.11-2.209-.899-.496-1.94-.745-3.122-.745-1.295,0-2.448.291-3.461.872-1.013.582-1.806,1.407-2.378,2.476-.572,1.069-.857,2.308-.857,3.714s.285,2.649.857,3.729c.572,1.078,1.365,1.908,2.378,2.489,1.013.582,2.166.872,3.461.872,1.744,0,3.16-.487,4.248-1.463,1.088-.975,1.754-2.297,1.997-3.967h-7.343v-2.561h10.775v2.504c-.206,1.52-.745,2.917-1.617,4.192-.872,1.276-2.008,2.293-3.404,3.053-1.397.76-2.95,1.14-4.656,1.14-1.839,0-3.518-.427-5.036-1.28-1.52-.854-2.726-2.04-3.616-3.559-.891-1.52-1.336-3.236-1.336-5.149s.445-3.629,1.336-5.148,2.101-2.705,3.63-3.559c1.528-.854,3.202-1.28,5.022-1.28,2.081,0,3.934.511,5.557,1.533,1.622,1.022,2.799,2.472,3.53,4.347h-3.854Z"/>
        <path class="cls-6" d="M659.614,772.864c.778-.44,1.702-.661,2.771-.661v3.32h-.816c-1.257,0-2.208.319-2.855.956-.647.639-.971,1.745-.971,3.32v8.159h-3.207v-15.502h3.207v2.25c.469-.787,1.093-1.401,1.871-1.843Z"/>
        <path class="cls-6" d="M668.097,787.214c-1.182-.666-2.11-1.604-2.785-2.813-.675-1.21-1.013-2.612-1.013-4.207,0-1.575.347-2.973,1.041-4.191.693-1.22,1.641-2.157,2.842-2.813,1.199-.656,2.541-.985,4.022-.985s2.823.329,4.023.985,2.147,1.594,2.842,2.813c.693,1.219,1.041,2.616,1.041,4.191s-.356,2.974-1.069,4.192c-.713,1.22-1.684,2.162-2.912,2.828s-2.584.998-4.065.998c-1.463,0-2.785-.332-3.967-.998ZM674.385,784.836c.722-.394,1.309-.984,1.759-1.772s.675-1.744.675-2.87-.216-2.077-.646-2.855c-.432-.778-1.004-1.364-1.717-1.758-.713-.395-1.481-.591-2.307-.591s-1.59.196-2.293.591c-.703.394-1.262.979-1.674,1.758-.413.778-.619,1.73-.619,2.855,0,1.67.426,2.959,1.28,3.869.853.91,1.927,1.364,3.221,1.364.825,0,1.6-.197,2.321-.591Z"/>
        <path class="cls-6" d="M704.108,772.457l-4.811,15.502h-3.377l-3.122-11.451-3.123,11.451h-3.377l-4.839-15.502h3.264l3.235,12.464,3.292-12.464h3.348l3.151,12.407,3.207-12.407h3.151Z"/>
        <path class="cls-6" d="M710.241,775.073v8.581c0,.582.137.999.408,1.252s.736.38,1.393.38h1.97v2.673h-2.532c-1.444,0-2.551-.338-3.319-1.013-.77-.676-1.154-1.772-1.154-3.292v-8.581h-1.828v-2.616h1.828v-3.854h3.235v3.854h3.771v2.616h-3.771Z"/>
        <path class="cls-6" d="M728.149,772.963c.928.507,1.66,1.257,2.194,2.251s.802,2.194.802,3.602v9.144h-3.18v-8.665c0-1.389-.347-2.452-1.04-3.193-.694-.741-1.642-1.111-2.842-1.111s-2.152.37-2.856,1.111c-.703.741-1.055,1.805-1.055,3.193v8.665h-3.207v-20.819h3.207v7.118c.544-.657,1.233-1.163,2.068-1.52.834-.356,1.748-.535,2.743-.535,1.182,0,2.236.254,3.165.76Z"/>
        <path class="cls-6" d="M745.296,787.214c-1.182-.666-2.11-1.604-2.785-2.813-.675-1.21-1.013-2.612-1.013-4.207,0-1.575.347-2.973,1.041-4.191.693-1.22,1.641-2.157,2.842-2.813,1.199-.656,2.541-.985,4.022-.985s2.823.329,4.023.985,2.147,1.594,2.842,2.813c.693,1.219,1.041,2.616,1.041,4.191s-.356,2.974-1.069,4.192c-.713,1.22-1.684,2.162-2.912,2.828s-2.584.998-4.065.998c-1.463,0-2.785-.332-3.967-.998ZM751.584,784.836c.722-.394,1.309-.984,1.759-1.772s.675-1.744.675-2.87-.216-2.077-.646-2.855c-.432-.778-1.004-1.364-1.717-1.758-.713-.395-1.481-.591-2.307-.591s-1.59.196-2.293.591c-.703.394-1.262.979-1.674,1.758-.413.778-.619,1.73-.619,2.855,0,1.67.426,2.959,1.28,3.869.853.91,1.927,1.364,3.221,1.364.825,0,1.6-.197,2.321-.591Z"/>
        <path class="cls-6" d="M774.527,772.457v15.502h-3.207v-1.829c-.507.639-1.168,1.14-1.983,1.506-.816.365-1.685.548-2.603.548-1.22,0-2.312-.253-3.278-.759-.966-.507-1.726-1.257-2.278-2.251-.554-.994-.83-2.194-.83-3.602v-9.115h3.179v8.637c0,1.389.347,2.453,1.041,3.193.694.741,1.642,1.111,2.842,1.111s2.152-.37,2.855-1.111c.703-.74,1.056-1.805,1.056-3.193v-8.637h3.207Z"/>
        <path class="cls-6" d="M783.825,772.864c.778-.44,1.702-.661,2.771-.661v3.32h-.816c-1.257,0-2.208.319-2.855.956-.647.639-.971,1.745-.971,3.32v8.159h-3.207v-15.502h3.207v2.25c.469-.787,1.093-1.401,1.871-1.843Z"/>
        <path class="cls-6" d="M802.295,772.935c.938-.487,1.998-.731,3.18-.731,1.351,0,2.583.334,3.699.999,1.116.666,1.993,1.6,2.631,2.8s.956,2.579.956,4.136-.318,2.949-.956,4.178-1.515,2.186-2.631,2.87-2.349,1.026-3.699,1.026c-1.182,0-2.232-.239-3.151-.717-.919-.479-1.67-1.074-2.251-1.787v9.622h-3.207v-22.873h3.207v2.278c.544-.712,1.284-1.312,2.223-1.801ZM808.836,777.366c-.44-.778-1.022-1.369-1.744-1.772s-1.496-.604-2.321-.604c-.807,0-1.57.206-2.293.618-.722.413-1.304,1.014-1.744,1.801-.44.788-.661,1.717-.661,2.785s.221,2.003.661,2.8c.44.798,1.022,1.402,1.744,1.814.723.413,1.486.619,2.293.619.825,0,1.6-.211,2.321-.633s1.304-1.036,1.744-1.843.661-1.744.661-2.813-.221-1.993-.661-2.771Z"/>
        <path class="cls-6" d="M821.019,772.864c.778-.44,1.702-.661,2.771-.661v3.32h-.816c-1.257,0-2.208.319-2.855.956-.647.639-.971,1.745-.971,3.32v8.159h-3.207v-15.502h3.207v2.25c.469-.787,1.093-1.401,1.871-1.843Z"/>
        <path class="cls-6" d="M826.913,769.812c-.395-.395-.591-.882-.591-1.464s.196-1.068.591-1.463.881-.591,1.463-.591c.562,0,1.041.197,1.435.591.394.395.591.882.591,1.463s-.197,1.069-.591,1.464c-.394.394-.872.591-1.435.591-.582,0-1.069-.197-1.463-.591ZM829.951,772.457v15.502h-3.207v-15.502h3.207Z"/>
        <path class="cls-6" d="M834.073,776.002c.647-1.2,1.528-2.134,2.645-2.8,1.116-.665,2.358-.999,3.728-.999,1.014,0,2.012.221,2.997.661.984.441,1.768,1.027,2.349,1.759v-7.483h3.235v20.819h-3.235v-2.335c-.525.75-1.252,1.369-2.18,1.856-.929.487-1.993.731-3.193.731-1.351,0-2.584-.342-3.7-1.026s-1.997-1.642-2.645-2.87-.971-2.621-.971-4.178.323-2.936.971-4.136ZM845.13,777.408c-.44-.787-1.018-1.388-1.73-1.801-.713-.412-1.481-.618-2.307-.618s-1.595.201-2.307.604c-.714.403-1.29.994-1.73,1.772-.441.778-.661,1.702-.661,2.771s.22,2.007.661,2.813c.44.807,1.021,1.421,1.744,1.843.722.422,1.486.633,2.293.633.825,0,1.594-.206,2.307-.619.713-.412,1.29-1.017,1.73-1.814.44-.797.661-1.73.661-2.8s-.221-1.997-.661-2.785Z"/>
        <path class="cls-6" d="M867.343,781.403h-11.845c.093,1.238.553,2.232,1.378,2.982.825.751,1.838,1.126,3.039,1.126,1.726,0,2.944-.723,3.657-2.167h3.461c-.47,1.426-1.318,2.594-2.547,3.503-1.229.91-2.753,1.364-4.571,1.364-1.482,0-2.81-.332-3.981-.998s-2.092-1.604-2.757-2.813c-.666-1.21-.999-2.612-.999-4.207s.323-2.996.971-4.206,1.557-2.143,2.729-2.799c1.173-.656,2.519-.985,4.038-.985,1.463,0,2.767.319,3.91.957,1.145.638,2.035,1.533,2.673,2.687s.957,2.481.957,3.981c0,.581-.038,1.106-.112,1.575ZM864.106,778.815c-.019-1.182-.44-2.129-1.266-2.842s-1.848-1.069-3.066-1.069c-1.107,0-2.054.352-2.842,1.056-.788.703-1.257,1.655-1.407,2.855h8.581Z"/>
      </g>
      <rect class="cls-5" x="162.941" y="776.452" width="387.01" height="5.002"/>
      <g>
        <path class="cls-5" d="M508.939,471.981h-.386c-15.191,0-30.212,2.199-38.279,3.384-1.886.282-3.431.507-4.568.643l-3.897.485,1.409-79.831,4.068.88c4.386.959,8.772,2.086,13.055,3.372l.284-19.884,4.068.879c4.386.948,8.76,2.075,13.055,3.361l.352-29.528,4.09.88c6.817,1.466,13.385,3.293,19.645,5.448l42.563-53.427h-68.514l-79.763,104.215v-104.215h-58.288v237.529h58.288v-104.892l80.444,104.892h71.241l-58.868-74.191Z"/>
        <path class="cls-6" d="M600.757,466.093c-1.682,3.462-3.613,6.632-5.761,9.497,3.681-2.989,7.135-6.158,10.34-9.497h-4.579ZM614.369,466.093c-10.601,12.226-25.213,24.148-45.403,33.509l-2.966-4.861c-.636.169-1.284.316-1.932.451-.068,2.03-.341,4.094-.807,6.203l-6.738-.789c.023-1.5-.034-2.933-.193-4.297-1.863.158-3.761.237-5.681.237-7.329,0-14.18-1.105-20.452-3.226l42.892,54.048c45.983-7.027,79.91-36.622,91.75-81.274h-50.471ZM664.84,390.301c-12.169-45.916-47.71-76.188-95.704-82.154l-43.904,55.13-2.25,2.82c1.443-.733,2.931-1.398,4.454-1.996,6.999-2.786,14.794-4.252,23.213-4.252,22.156,0,40.222,10.151,50.107,30.452h.273c-.205-1.049-.307-2.132-.307-3.237,0-9.474,7.772-17.189,17.316-17.189,8.885,0,16.214,6.677,17.202,15.238.477-1.455.875-2.977,1.182-4.568l6.692.034c.318,1.737.614,5.121.534,9.722h21.19Z"/>
        <g>
          <path class="cls-4" d="M618.039,373.26c-7.682,0-13.91,6.182-13.91,13.808s6.228,13.808,13.91,13.808,13.91-6.182,13.91-13.808-6.228-13.808-13.91-13.808"/>
          <path class="cls-2" d="M587.386,460.934c8.933-72.47-71.144-89.787-79.527-92.324l-.703,58.984c78.155,7.818,59.811,55.891,59.811,55.891,4.77-38.967-31.759-46.663-66.381-50.063l.876-73.493c49.528,10.711,99.563,44.504,85.923,101.006"/>
          <path class="cls-1" d="M501.021,396.967c-5.262-1.667-9.136-2.615-10.653-3.074l-.603,50.619c72.275,1.316,77.544,29.578,74.149,46.836.933-40.422-55.124-39.953-80.866-39.326l.923-66.809c5.739,1.241,11.483,2.795,17.134,4.656l-.084,7.099Z"/>
          <path class="cls-3" d="M483.606,412.606c-5.262-1.668-9.136-2.615-10.653-3.074l-.978,54.904c74.376-9.747,92.924,13.936,87.956,36.232.87-45.525-80.305-29.795-94.65-28.017l1.275-71.8c5.739,1.241,11.483,2.795,17.134,4.656l-.085,7.099Z"/>
          <path class="cls-2" d="M525.829,393.51c-1.598-.712-2.645-1.294-3.133-1.754-.497-.461-.706-1.086-.637-1.875.123-1.408.889-2.047,2.291-1.926,1.73.149,2.815,1.341,3.263,3.577l4.945-1.016c-.645-3.47-2.44-5.657-5.38-6.561l.372-4.25-4.034-.348-.363,4.146c-1.731.112-3.26.641-4.59,1.585-1.762,1.258-2.743,3.043-2.946,5.361-.144,1.652.245,3.145,1.176,4.496.931,1.343,2.756,2.574,5.457,3.701,1.482.611,2.467,1.147,2.957,1.599.497.461.706,1.086.636,1.883-.129,1.481-1.096,2.143-2.899,1.988-2.106-.182-3.28-1.496-3.52-3.943l-5.436.4c.155,4.388,2.487,6.987,6.99,7.786l-.357,4.084,4.034.348.371-4.247c1.734-.18,3.199-.738,4.399-1.671,1.746-1.366,2.721-3.159,2.916-5.389.112-1.285-.084-2.442-.587-3.485-.512-1.044-1.168-1.847-1.994-2.418-.818-.562-2.128-1.257-3.931-2.069"/>
          <path class="cls-4" d="M525.232,363.277l-2.25,2.82c1.443-.733,2.931-1.398,4.454-1.996-.727-.282-1.466-.552-2.204-.823Z"/>
          <path class="cls-4" d="M550.521,371.578c51.886,30.572,63.146,90.176,16.996,124.959,75.223-34.893,73.973-105.928,72.249-115.36-2.855,14.79-12.515,24.104-23.228,23.584-8.061-.391-17.928-8.52-24.469-13.032-11.295-7.792-24.258-16.211-41.549-20.152"/>
        </g>
        <path class="cls-6" d="M500.77,224.308c-112.736,0-204.129,90.721-204.129,202.628s91.393,202.628,204.129,202.628,204.129-90.721,204.129-202.628-91.393-202.628-204.129-202.628ZM500.77,626.269c-110.727,0-200.81-89.42-200.81-199.333s90.082-199.333,200.81-199.333,200.81,89.42,200.81,199.333-90.082,199.333-200.81,199.333Z"/>
        <path class="cls-5" d="M690.797,511.431c-30.479,86.185-111.433,147.793-206.493,147.793-121.196,0-219.437-100.107-219.437-223.578s98.241-223.605,219.437-223.605c36.978,0,71.8,9.3,102.334,25.787-26.164-11.724-55.177-18.263-85.739-18.263-115.084,0-208.374,92.526-208.374,206.668s93.29,206.695,208.374,206.695c84.439,0,157.152-49.856,189.899-121.498Z"/>
      </g>
    </g>
  </g>
</svg>